<svg id="Capa_1" enable-background="new 0 0 512 512" height="512" viewBox="0 0 512 512" width="512" xmlns="http://www.w3.org/2000/svg"><g><path d="m412.326 176.145c6.083 3.015 12.797-2.683 10.737-9.152-13.465-42.278-55.692-143.723-152.004-148.855-109.731-5.846-142.765 63.098-132.076 100.446l12.836 25.393c5.851 18.676 24.645 51.719 84.287 49.923 76.849-2.315 111.491-49.84 176.22-17.755z" fill="#6bcb44"/><path d="m282.031 62.093c57.365.023 98.749 32.388 127.222 69.015-21.478-47.283-63.619-108.997-138.194-112.97-109.731-5.846-142.765 63.098-132.076 100.446l7.666 15.165c12.917-35.529 53.516-71.689 135.382-71.656z" fill="#4dc321"/><path d="m461.35 264.992-28.409-1.58c-19.1-4.271-57.113-4.516-85.378 48.033-36.419 67.71-12.583 121.474-72.733 161.488-5.653 3.761-4.075 12.424 2.558 13.874 43.346 9.478 152.314 23.631 204.914-57.212 59.927-92.106 16.737-155.186-20.952-164.603z" fill="#6bcb44"/><path d="m320.155 489.354c60.15-42.586 36.314-99.806 72.733-171.867 20.019-39.61 44.926-51.032 64.542-52.712l-24.49-1.362c-19.1-4.271-57.113-4.516-85.378 48.033-36.419 67.71-12.583 121.474-72.733 161.488-5.653 3.761-4.075 12.424 2.558 13.874 10.202 2.231 24.04 4.72 39.921 6.169.554-1.39 1.486-2.659 2.847-3.623z" fill="#4dc321"/><path d="m80.634 203.482c-.43-6.776-8.722-9.741-13.294-4.722-29.881 32.8-96.622 120.092-52.91 206.066 49.803 97.953 126.027 92.089 153.027 64.158l15.573-23.813c13.248-14.406 32.467-47.203 1.091-97.956-40.43-65.395-98.908-71.634-103.487-143.733z" fill="#6bcb44"/><path d="m56.667 404.826c-33.752-66.385-1.651-133.548 28.486-175.811-2.342-7.547-3.91-15.954-4.518-25.533-.43-6.776-8.722-9.741-13.294-4.722-29.881 32.8-96.622 120.092-52.91 206.066 38.084 74.904 91.616 89.099 126.775 79.143-28.517-7.434-59.79-30.466-84.539-79.143z" fill="#4dc321"/><path d="m103.953 159.997c-1.957 1.566-2.969 3.86-2.999 6.188l5.226 6.532c2.991 3.739 8.575 4.009 11.916.58 20.291-20.822 88.107-82.571 163.797-65.032 1.636.379 2.994-.196 3.866-1.188-31.073-14.118-90.393-20.21-181.806 52.92z" fill="#c3ebb0"/><path d="m105.297 160.124c90.087-72.069 148.514-65.982 179.078-52.051 2.694-1.142 3.564-5.265.473-7.128-27.227-16.412-88.191-32.555-188.05 47.332-3.426 2.74-3.968 7.752-1.228 11.178l6.98 8.725c-.692-2.901.268-6.072 2.747-8.056z" fill="#97dc7c"/><path d="m456.727 213.611c-.66-4.337-4.73-7.313-9.066-6.652l-8.71 1.327c-1.868 1.957-2.721 4.817-1.921 7.655 7.887 27.983 27.455 117.589-25.58 174.368-1.38 1.477-1.365 3.296-.577 4.675l.31.498c27.507-19.015 63.145-66.307 45.544-181.871z" fill="#c3ebb0"/><path d="m412.48 390.309c53.035-56.78 33.467-146.385 25.58-174.368-.824-2.923.095-5.878 2.083-7.837l-9.272 1.412c-4.734.721-7.76 5.421-6.46 10.03 7.887 27.983 27.455 117.589-25.58 174.368-3.117 3.337.865 8.427 4.862 6.219 2.612-1.443 5.372-3.146 8.211-5.15-.789-1.378-.803-3.196.576-4.674z" fill="#97dc7c"/><path d="m225.283 459.716c-28.178-7.161-115.562-35.018-138.218-109.337-.692-2.272-2.754-3.106-4.587-2.752 1.118.215 2.154.885 2.749 2.08 3.916 33.902 29.122 87.015 135.912 128.737 2.222.868 4.592.663 6.564-.346l3.036-7.772c1.743-4.46-.815-9.43-5.456-10.61z" fill="#c3ebb0"/><path d="m221.218 477.021c-105.629-41.269-130.56-93.804-134.434-127.337-1.768-3.552-7.454-2.507-7.535 1.797-.6 31.785 15.902 92.654 135.015 139.191 4.086 1.596 8.698-.44 10.294-4.526l3.854-9.865c-2.071 1.336-4.726 1.704-7.194.74z" fill="#97dc7c"/></g></svg>