<svg clip-rule="evenodd" fill-rule="evenodd" height="512" stroke-linejoin="round" stroke-miterlimit="2" viewBox="0 0 356 356" width="512" xmlns="http://www.w3.org/2000/svg"><g id="Exp-2.-FL"><g><path d="m179.119 80.5-26.233-38.877c-4.193 0-8.068 2.224-10.165 5.833-6.755 11.627-21.968 37.812-30.359 52.256-3.226 5.553-1.337 12.653 4.23 15.896 6.454 3.759 14.807 8.623 21.287 12.397 2.697 1.571 5.913 2.008 8.936 1.213 3.022-.794 5.601-2.754 7.164-5.444 9.007-15.504 25.14-43.274 25.14-43.274z" fill="#c5cc1a"/><path d="m268.301 233.807 46.785-3.28c2.096-3.632 2.108-8.099.031-11.72-6.692-11.663-18.415-32.096-26.728-46.585-3.196-5.571-10.29-7.484-15.881-4.284-6.483 3.71-14.872 8.511-21.38 12.236-2.709 1.55-4.696 4.117-5.519 7.132-.823 3.014-.415 6.227 1.133 8.926 8.923 15.552 21.559 37.575 21.559 37.575z" fill="#c5cc1a"/><path d="m200.452 117.22-11.399 6.541c-1.958 1.123-3.093 3.265-2.917 5.506.177 2.24 1.633 4.181 3.744 4.988 15.808 6.044 43.787 16.742 56.62 21.649 1.654.632 3.507.488 5.042-.393 1.535-.88 2.587-2.403 2.863-4.143 2.14-13.497 6.807-42.926 9.444-59.553.352-2.22-.611-4.444-2.475-5.716-1.864-1.273-4.298-1.367-6.257-.243l-12.968 7.44-26.632-45.84c-2.096-3.609-5.971-5.833-10.165-5.833-12.668 0-39.798 0-52.466 0-1.835 0 47.566 75.597 47.566 75.597z" fill="#dde825"/><path d="m225.834 233.922.035-13.142c.006-2.258-1.281-4.312-3.31-5.279-2.029-.968-4.437-.677-6.192.748-13.138 10.668-36.393 29.55-47.058 38.21-1.375 1.116-2.177 2.793-2.181 4.562-.005 1.77.788 3.442 2.156 4.551 10.619 8.603 33.772 27.359 46.853 37.956 1.747 1.415 4.154 1.693 6.188.714 2.034-.978 3.333-3.039 3.339-5.297l.04-14.951 53.015-.143c4.174-.011 8.037-2.255 10.134-5.887 6.333-10.971 19.899-34.466 26.233-45.437.917-1.589-89.252 3.395-89.252 3.395z" fill="#dde825"/><path d="m87.669 234.173-20.876 41.959c2.087 3.615 5.955 5.849 10.149 5.86 13.509.037 41.268.119 58.051.164 6.452.018 11.709-5.144 11.768-11.557.069-7.433.158-17.054.227-24.518.029-3.106-1.191-6.096-3.388-8.306-2.198-2.21-5.191-3.458-8.318-3.466-18.013-.049-47.613-.136-47.613-.136z" fill="#c5cc1a"/><path d="m109.101 197.511 11.381 6.571c1.956 1.129 4.39 1.041 6.258-.226 1.867-1.267 2.836-3.488 2.49-5.709-2.592-16.635-7.179-46.076-9.283-59.58-.271-1.74-1.319-3.266-2.852-4.15-1.532-.885-3.385-1.034-5.04-.406-12.846 4.872-40.854 15.494-56.679 21.495-2.113.802-3.574 2.738-3.757 4.978-.182 2.24.946 4.385 2.902 5.514l12.948 7.476-26.756 45.768c-2.106 3.604-2.118 8.05-.031 11.665 6.304 10.92 19.806 34.306 26.111 45.225z" fill="#dde825"/><g fill="#1c3d57"><path d="m152.886 37.457c-5.681 0-10.927 3.016-13.768 7.906-6.755 11.626-21.968 37.812-30.359 52.256-4.381 7.541-1.824 17.186 5.736 21.589l21.287 12.398c3.65 2.125 8.002 2.717 12.092 1.642 4.096-1.076 7.589-3.735 9.708-7.381 4.077-7.018 9.613-16.548 14.453-24.879 1.156-1.989.479-4.541-1.509-5.696-1.989-1.155-4.541-.479-5.696 1.51l-14.454 24.879c-1.008 1.734-2.672 2.996-4.62 3.508-1.955.513-4.036.232-5.78-.784l-21.286-12.398c-3.574-2.081-4.796-6.637-2.725-10.202 0 0 30.359-52.256 30.359-52.256 1.353-2.329 3.856-3.759 6.562-3.759 2.3 0 4.167-1.867 4.167-4.167 0-2.299-1.867-4.166-4.167-4.166z"/><path d="m194.553 115.801-7.574 4.346c-3.359 1.927-5.299 5.604-4.996 9.447.302 3.84 2.792 7.17 6.409 8.553 15.808 6.044 43.787 16.742 56.62 21.649 2.822 1.079 5.984.832 8.603-.67 2.632-1.51 4.432-4.123 4.905-7.105 2.14-13.497 6.807-42.926 9.444-59.554.604-3.809-1.043-7.627-4.241-9.81-3.182-2.171-7.337-2.333-10.68-.415.001 0-9.373 5.378-9.373 5.378s-24.55-42.257-24.55-42.257c-2.84-4.89-8.087-7.906-13.768-7.906-12.668 0-39.798 0-52.466 0-1.723 0-2.924.781-3.694 2.187-.279.509-.547 1.215-.521 2.173.012.425.324 1.863 1.441 3.915 5.699 10.47 35.672 56.609 44.44 70.069zm-34.786-70.011h45.585c2.706 0 5.21 1.43 6.563 3.759 0 0 26.631 45.84 26.631 45.84 1.152 1.983 3.688 2.662 5.677 1.521l12.968-7.44c.574-.33 1.288-.303 1.834.07.53.362.809.991.709 1.622l-9.445 59.554c-.078.497-.382.93-.821 1.181-.45.259-.994.301-1.48.115l-56.62-21.649c-.604-.231-1.027-.782-1.078-1.423-.05-.638.279-1.245.837-1.565l11.399-6.541c.995-.57 1.71-1.526 1.978-2.641.267-1.116.063-2.292-.564-3.252 0 0-33.452-51.177-44.173-69.151z"/><path d="m63.092 278.282c2.84 4.889 8.087 7.906 13.768 7.906h60.717c8.751 0 15.847-7.032 15.904-15.728l.161-24.519c.027-4.219-1.638-8.277-4.631-11.27-2.983-2.984-7.04-4.664-11.273-4.664-8.62 0-20.504 0-30.554 0-2.299 0-4.166 1.867-4.166 4.166 0 2.3 1.867 4.167 4.166 4.167h30.554c2.019 0 3.956.799 5.38 2.223 1.414 1.414 2.204 3.33 2.19 5.324l-.16 24.518c-.027 4.13-3.416 7.45-7.57 7.45-.001 0-60.718 0-60.718 0-2.706 0-5.21-1.43-6.563-3.759-1.155-1.988-3.707-2.665-5.696-1.51-1.988 1.156-2.664 3.708-1.509 5.696z"/><path d="m110.44 203.204 7.675 4.404c3.343 1.918 7.498 1.756 10.679-.416 3.199-2.183 4.846-6 4.242-9.81-2.637-16.627-7.304-46.056-9.444-59.554-.473-2.982-2.274-5.595-4.905-7.104-2.619-1.503-5.781-1.75-8.603-.67-12.833 4.906-40.812 15.604-56.62 21.649-3.617 1.383-6.107 4.712-6.409 8.552-.303 3.843 1.637 7.521 4.996 9.448 0 0 9.335 5.356 9.335 5.356s-24.527 42.218-24.527 42.218c-2.85 4.904-2.85 10.946 0 15.851 6.334 10.902 19.899 34.252 26.233 45.154.759 1.307 2.165 2.1 3.676 2.073s2.889-.869 3.601-2.201zm.424-9.365c-.978-.56-2.14-.701-3.223-.391-1.083.311-1.994 1.047-2.525 2.041l-38.573 72.145s-22.479-38.692-22.479-38.692c-1.344-2.314-1.344-5.165 0-7.479 0 0 26.632-45.84 26.632-45.84.557-.959.709-2.101.422-3.172s-.989-1.984-1.951-2.536l-12.968-7.44c-.558-.32-.887-.927-.837-1.565.051-.642.474-1.193 1.078-1.424l56.62-21.649c.486-.185 1.03-.144 1.48.115.439.252.743.684.821 1.182l9.445 59.554c.1.63-.179 1.26-.709 1.621-.546.373-1.26.4-1.834.071z"/><path d="m318.694 232.61c2.84-4.92 2.851-10.972.037-15.876-6.691-11.663-18.415-32.097-26.728-46.585-4.341-7.566-13.972-10.173-21.565-5.828l-21.38 12.236c-3.666 2.098-6.354 5.572-7.468 9.651-1.116 4.086-.56 8.44 1.538 12.098 3.343 5.826 7.206 12.559 10.731 18.703 1.145 1.995 3.693 2.685 5.688 1.541 1.995-1.145 2.685-3.693 1.54-5.688l-10.731-18.703c-.998-1.74-1.258-3.812-.727-5.756.532-1.949 1.816-3.61 3.568-4.613l21.38-12.236c3.59-2.054 8.146-.834 10.198 2.742 0 0 26.728 46.585 26.728 46.585 1.341 2.336 1.327 5.219-.026 7.563-1.15 1.991-.466 4.541 1.525 5.691 1.992 1.15 4.542.467 5.692-1.525z"/><path d="m230.012 229.522.024-8.731c.01-3.873-2.204-7.392-5.684-9.051-3.476-1.658-7.605-1.167-10.611 1.274-13.139 10.668-36.393 29.55-47.059 38.21-2.345 1.905-3.713 4.766-3.721 7.786-.008 3.033 1.354 5.899 3.701 7.8 10.618 8.602 33.771 27.358 46.853 37.955 2.997 2.428 7.126 2.911 10.616 1.232 3.472-1.67 5.689-5.186 5.699-9.04 0 0 .03-10.807.03-10.807s48.87-.132 48.87-.132c5.655-.016 10.891-3.051 13.731-7.971 6.334-10.97 19.899-34.466 26.233-45.437.862-1.492.785-2.923-.047-4.293-.301-.495-.779-1.08-1.621-1.537-.374-.203-1.776-.651-4.112-.71-11.916-.3-66.86 2.588-82.902 3.452zm78.025 4.881-22.793 39.477c-1.353 2.344-3.843 3.797-6.536 3.804 0 0-53.015.144-53.015.144-2.293.006-4.149 1.863-4.156 4.155l-.04 14.951c-.002.662-.382 1.267-.978 1.554-.578.277-1.263.204-1.759-.198l-46.853-37.956c-.391-.316-.614-.796-.613-1.302.002-.519.238-1.011.641-1.339l47.059-38.21c.502-.407 1.191-.498 1.771-.221.578.275.939.863.938 1.506l-.036 13.143c-.003 1.146.467 2.244 1.299 3.033.832.79 1.953 1.201 3.098 1.138 0 0 61.046-3.382 81.973-3.679z"/></g></g></g></svg>