<svg id="Capa_1" enable-background="new 0 0 512 512" height="512" viewBox="0 0 512 512" width="512" xmlns="http://www.w3.org/2000/svg"><g><g><path d="m214.969 318.25-50.21 50.22c-2.93 2.93-6.77 4.39-10.61 4.39s-7.68-1.46-10.61-4.39c-5.85-5.86-5.85-15.36 0-21.22l50.21-50.22c5.86-5.85 15.36-5.85 21.22 0v.01c5.85 5.86 5.86 15.35 0 21.21z" fill="#dfe7f4"/></g><path d="m214.969 318.25-50.21 50.22c-2.93 2.93-6.77 4.39-10.61 4.39s-7.68-1.46-10.61-4.39l71.43-71.43c5.85 5.86 5.86 15.35 0 21.21z" fill="#c7cfe1"/><g><g><path d="m496.999 186.43c0 94.52-76.9 171.43-171.43 171.43-34.81 0-68.34-10.39-96.95-30.04-8.74-6-16.84-12.73-24.27-20.16-7.42-7.43-14.17-15.54-20.17-24.29-19.65-28.6-30.04-62.13-30.04-96.94 0-94.53 76.91-171.43 171.43-171.43 47.27 0 90.13 19.23 121.16 50.28 31.05 31.04 50.27 73.89 50.27 121.15z" fill="#7ed8f6"/></g></g><path d="m496.999 186.43c0 94.52-76.9 171.43-171.43 171.43-34.81 0-68.34-10.39-96.95-30.04-8.74-6-16.84-12.73-24.27-20.16l242.38-242.38c31.05 31.04 50.27 73.89 50.27 121.15z" fill="#6aa9ff"/><g><g><path d="m199.149 186.44c0 8.284 6.716 15 15 15s15-6.716 15-15c0-53.172 43.258-96.43 96.43-96.43 8.284 0 15-6.716 15-15s-6.716-15-15-15c-69.714 0-126.43 56.716-126.43 126.43z" fill="#f0f7ff"/></g></g><g><g><path d="m457.339 54.67c-33.75-33.76-80.36-54.67-131.76-54.67-102.81 0-186.44 83.63-186.44 186.42 0 37.87 11.3 74.33 32.67 105.43 6.53 9.51 13.86 18.34 21.94 26.41 8.08 8.09 16.89 15.4 26.39 21.93 31.11 21.37 67.57 32.67 105.44 32.67 102.79 0 186.42-83.63 186.42-186.44 0-51.39-20.91-97.99-54.66-131.75zm-131.76 288.19c-31.78 0-62.36-9.47-88.46-27.4-7.98-5.48-15.37-11.63-22.15-18.42-6.79-6.77-12.95-14.18-18.43-22.17-17.93-26.09-27.4-56.67-27.4-88.45 0-86.25 70.18-156.42 156.44-156.42 43.13 0 82.24 17.55 110.55 45.88 28.33 28.32 45.87 67.43 45.87 110.54 0 86.26-70.17 156.44-156.42 156.44z" fill="#334973"/></g></g><path d="m511.999 186.42c0 102.81-83.63 186.44-186.42 186.44-37.87 0-74.33-11.3-105.44-32.67-9.5-6.53-18.31-13.84-26.39-21.93l21.22-21.22c6.78 6.79 14.17 12.94 22.15 18.42 26.1 17.93 56.68 27.4 88.46 27.4 86.25 0 156.42-70.18 156.42-156.44 0-43.11-17.54-82.22-45.87-110.54l21.21-21.21c33.75 33.76 54.66 80.36 54.66 131.75z" fill="#1f3259"/><g><path d="m185.959 389.67-117.93 117.94c-5.863 5.863-15.365 5.845-21.21 0l-21.21-21.21-21.22-21.22c-5.838-5.838-5.863-15.347 0-21.21l117.94-117.94c2.81-2.81 6.62-4.39 10.6-4.39s7.8 1.58 10.61 4.39l21.22 21.22 21.2 21.21c5.86 5.86 5.86 15.36 0 21.21z" fill="#334973"/></g><path d="m185.959 389.67-117.93 117.94c-5.863 5.863-15.365 5.845-21.21 0l-21.21-21.21 139.15-139.15 21.2 21.21c5.86 5.86 5.86 15.36 0 21.21z" fill="#1f3259"/></g></svg>